<svg width="435" height="121" viewBox="0 0 435 121" fill="none" xmlns="http://www.w3.org/2000/svg">
<path d="M7.24165 97V24.2727H54.5428V35.3168H20.4164V55.0611H52.0925V66.1051H20.4164V85.956H54.8269V97H7.24165ZM83.1117 98.1009C79.6552 98.1009 76.5421 97.4853 73.7722 96.2543C71.026 94.9995 68.848 93.1529 67.2381 90.7145C65.6519 88.276 64.8588 85.2694 64.8588 81.6946C64.8588 78.617 65.427 76.072 66.5634 74.0597C67.6998 72.0473 69.2504 70.4375 71.2154 69.2301C73.1803 68.0227 75.3939 67.1113 77.856 66.4957C80.3418 65.8565 82.9105 65.3949 85.562 65.1108C88.758 64.7794 91.3503 64.4834 93.339 64.223C95.3276 63.9389 96.7717 63.5128 97.6713 62.9446C98.5946 62.3527 99.0563 61.4413 99.0563 60.2102V59.9972C99.0563 57.322 98.2632 55.2505 96.677 53.7827C95.0908 52.3149 92.8063 51.581 89.8233 51.581C86.6747 51.581 84.177 52.2675 82.3304 53.6406C80.5075 55.0137 79.2765 56.6354 78.6373 58.5057L66.6344 56.8011C67.5814 53.4867 69.1439 50.7169 71.3219 48.4915C73.4999 46.2424 76.1633 44.5616 79.312 43.4489C82.4606 42.3125 85.9408 41.7443 89.7523 41.7443C92.3802 41.7443 94.9962 42.0521 97.6003 42.6676C100.204 43.2831 102.584 44.3011 104.738 45.7216C106.892 47.1184 108.621 49.0241 109.923 51.4389C111.249 53.8537 111.911 56.8722 111.911 60.4943V97H99.5534V89.5071H99.1273C98.3461 91.0223 97.2452 92.4427 95.8248 93.7685C94.428 95.0705 92.6642 96.1241 90.5336 96.929C88.4266 97.7102 85.9526 98.1009 83.1117 98.1009ZM86.4498 88.6548C89.0302 88.6548 91.2675 88.1458 93.1614 87.1278C95.0553 86.0862 96.5113 84.7131 97.5293 83.0085C98.571 81.304 99.0918 79.4455 99.0918 77.4332V71.0057C98.6893 71.3371 98.0028 71.6449 97.0321 71.929C96.0852 72.2131 95.0198 72.4616 93.8361 72.6747C92.6524 72.8878 91.4805 73.0772 90.3205 73.2429C89.1605 73.4086 88.1543 73.5507 87.302 73.669C85.3844 73.9294 83.668 74.3556 82.1529 74.9474C80.6377 75.5393 79.4422 76.3679 78.5662 77.4332C77.6903 78.4749 77.2523 79.8243 77.2523 81.4815C77.2523 83.849 78.1164 85.6364 79.8446 86.8438C81.5729 88.0511 83.7746 88.6548 86.4498 88.6548ZM167.948 56.8722L156.23 58.1506C155.898 56.9669 155.318 55.8542 154.49 54.8125C153.685 53.7708 152.596 52.9304 151.222 52.2912C149.849 51.652 148.169 51.3324 146.18 51.3324C143.505 51.3324 141.256 51.9124 139.433 53.0724C137.633 54.2325 136.746 55.7358 136.769 57.5824C136.746 59.1686 137.326 60.4588 138.509 61.4531C139.717 62.4474 141.705 63.2642 144.475 63.9034L153.779 65.892C158.94 67.0047 162.776 68.7685 165.285 71.1832C167.818 73.598 169.097 76.7585 169.12 80.6648C169.097 84.0975 168.09 87.1278 166.102 89.7557C164.137 92.3598 161.402 94.3958 157.899 95.8636C154.395 97.3314 150.37 98.0653 145.825 98.0653C139.149 98.0653 133.775 96.6686 129.703 93.875C125.631 91.0578 123.204 87.1397 122.423 82.1207L134.958 80.9134C135.526 83.3755 136.734 85.2339 138.58 86.4886C140.427 87.7434 142.83 88.3707 145.789 88.3707C148.843 88.3707 151.294 87.7434 153.14 86.4886C155.01 85.2339 155.945 83.6832 155.945 81.8366C155.945 80.2741 155.342 78.9839 154.134 77.9659C152.951 76.9479 151.104 76.1667 148.595 75.6222L139.291 73.669C134.059 72.58 130.188 70.7453 127.678 68.1648C125.169 65.5606 123.926 62.2699 123.95 58.2926C123.926 54.9309 124.838 52.0189 126.684 49.5568C128.554 47.071 131.147 45.1534 134.461 43.804C137.799 42.4309 141.646 41.7443 146.002 41.7443C152.394 41.7443 157.425 43.1056 161.095 45.8281C164.788 48.5507 167.072 52.232 167.948 56.8722ZM187.71 117.455C185.959 117.455 184.337 117.313 182.845 117.028C181.378 116.768 180.206 116.46 179.33 116.105L182.313 106.091C184.183 106.635 185.852 106.896 187.32 106.872C188.788 106.848 190.078 106.387 191.191 105.487C192.327 104.611 193.286 103.143 194.067 101.084L195.168 98.1364L175.388 42.4545H189.024L201.595 83.6477H202.164L214.77 42.4545H228.442L206.602 103.605C205.584 106.493 204.235 108.967 202.554 111.027C200.873 113.11 198.814 114.696 196.375 115.786C193.96 116.898 191.072 117.455 187.71 117.455ZM286.627 47.4972C286.035 45.5795 285.219 43.8632 284.177 42.348C283.159 40.8092 281.928 39.4953 280.484 38.4062C279.063 37.3172 277.43 36.5005 275.583 35.956C273.737 35.3878 271.724 35.1037 269.546 35.1037C265.64 35.1037 262.16 36.0862 259.106 38.0511C256.052 40.0161 253.649 42.9044 251.897 46.7159C250.169 50.5038 249.305 55.1203 249.305 60.5653C249.305 66.0578 250.169 70.7098 251.897 74.5213C253.625 78.3329 256.028 81.233 259.106 83.2216C262.184 85.1866 265.758 86.169 269.83 86.169C273.524 86.169 276.72 85.4588 279.419 84.0384C282.141 82.6179 284.236 80.6056 285.704 78.0014C287.172 75.3736 287.906 72.2959 287.906 68.7685L290.889 69.2301H271.144V58.9318H300.654V67.6676C300.654 73.8939 299.329 79.2798 296.677 83.8253C294.026 88.3707 290.38 91.8745 285.74 94.3366C281.099 96.7751 275.773 97.9943 269.759 97.9943C263.06 97.9943 257.177 96.491 252.11 93.4844C247.068 90.4541 243.126 86.1572 240.285 80.5938C237.468 75.0066 236.059 68.3778 236.059 60.7074C236.059 54.8362 236.888 49.5923 238.545 44.9759C240.226 40.3594 242.57 36.4413 245.576 33.2216C248.583 29.9782 252.11 27.5161 256.159 25.8352C260.207 24.1307 264.61 23.2784 269.369 23.2784C273.393 23.2784 277.146 23.8703 280.626 25.054C284.106 26.214 287.195 27.8712 289.894 30.0256C292.617 32.1799 294.854 34.7367 296.606 37.696C298.358 40.6553 299.506 43.9223 300.051 47.4972H286.627ZM312.826 97V42.4545H325.29V51.5455H325.858C326.853 48.3968 328.557 45.9702 330.972 44.2656C333.411 42.5374 336.192 41.6733 339.317 41.6733C340.028 41.6733 340.821 41.7088 341.697 41.7798C342.596 41.8272 343.342 41.91 343.934 42.0284V53.8537C343.389 53.6643 342.525 53.4986 341.341 53.3565C340.181 53.1908 339.057 53.108 337.968 53.108C335.624 53.108 333.517 53.6169 331.647 54.6349C329.8 55.6293 328.344 57.0142 327.279 58.7898C326.214 60.5653 325.681 62.6132 325.681 64.9332V97H312.826ZM352.474 97V42.4545H365.329V97H352.474ZM358.937 34.7131C356.901 34.7131 355.149 34.0384 353.682 32.6889C352.214 31.3158 351.48 29.6705 351.48 27.7528C351.48 25.8116 352.214 24.1662 353.682 22.8168C355.149 21.4437 356.901 20.7571 358.937 20.7571C360.997 20.7571 362.749 21.4437 364.193 22.8168C365.661 24.1662 366.395 25.8116 366.395 27.7528C366.395 29.6705 365.661 31.3158 364.193 32.6889C362.749 34.0384 360.997 34.7131 358.937 34.7131ZM398.79 97.9588C394.505 97.9588 390.67 96.858 387.284 94.6562C383.899 92.4545 381.224 89.2585 379.259 85.0682C377.294 80.8778 376.311 75.7879 376.311 69.7983C376.311 63.7377 377.306 58.6241 379.294 54.4574C381.307 50.267 384.017 47.1065 387.426 44.9759C390.835 42.8215 394.635 41.7443 398.825 41.7443C402.021 41.7443 404.649 42.2888 406.709 43.3778C408.769 44.4432 410.402 45.7334 411.61 47.2486C412.817 48.7401 413.752 50.1487 414.415 51.4744H414.948V24.2727H427.838V97H415.196V88.4062H414.415C413.752 89.732 412.793 91.1406 411.539 92.6321C410.284 94.0999 408.627 95.3546 406.567 96.3963C404.507 97.438 401.915 97.9588 398.79 97.9588ZM402.377 87.4119C405.099 87.4119 407.419 86.678 409.337 85.2102C411.254 83.7187 412.71 81.6473 413.705 78.9957C414.699 76.3442 415.196 73.2547 415.196 69.7273C415.196 66.1998 414.699 63.134 413.705 60.5298C412.734 57.9257 411.29 55.9015 409.372 54.4574C407.478 53.0133 405.146 52.2912 402.377 52.2912C399.512 52.2912 397.121 53.0369 395.203 54.5284C393.286 56.0199 391.842 58.0795 390.871 60.7074C389.9 63.3352 389.415 66.3419 389.415 69.7273C389.415 73.1364 389.9 76.1785 390.871 78.8537C391.865 81.5052 393.321 83.6004 395.239 85.1392C397.18 86.6544 399.559 87.4119 402.377 87.4119Z" fill="white"/>
</svg>
