<svg width="122" height="185" viewBox="0 0 122 185" fill="none" xmlns="http://www.w3.org/2000/svg">
<g filter="url(#filter0_i_13_115)">
<path fill-rule="evenodd" clip-rule="evenodd" d="M56.7693 88.0467L71.8551 16.9917L11.1179 105.403L44.3358 109.328L40.5468 118.95L9.94438 115.334C2.472 114.451 -1.38509 105.942 2.87552 99.7406L63.6127 11.3293C69.8086 2.31031 83.9095 8.36493 81.637 19.0685L67.0695 87.6826L56.7693 88.0467Z" fill="url(#paint0_linear_13_115)"/>
</g>
<g filter="url(#filter1_i_13_115)">
<path fill-rule="evenodd" clip-rule="evenodd" d="M64.8747 96.7456L49.789 167.801L110.526 79.3893L77.3083 75.4639L81.0972 65.8421L111.7 69.4584C119.172 70.3414 123.029 78.8498 118.769 85.0517L58.0314 173.463C51.8355 182.482 37.7345 176.427 40.007 165.724L54.5745 97.1096L64.8747 96.7456Z" fill="url(#paint1_linear_13_115)"/>
</g>
<defs>
<filter id="filter0_i_13_115" x="1.10657" y="6.94769" width="80.7759" height="116.002" filterUnits="userSpaceOnUse" color-interpolation-filters="sRGB">
<feFlood flood-opacity="0" result="BackgroundImageFix"/>
<feBlend mode="normal" in="SourceGraphic" in2="BackgroundImageFix" result="shape"/>
<feColorMatrix in="SourceAlpha" type="matrix" values="0 0 0 0 0 0 0 0 0 0 0 0 0 0 0 0 0 0 127 0" result="hardAlpha"/>
<feOffset dy="4"/>
<feGaussianBlur stdDeviation="2"/>
<feComposite in2="hardAlpha" operator="arithmetic" k2="-1" k3="1"/>
<feColorMatrix type="matrix" values="0 0 0 0 0 0 0 0 0 0 0 0 0 0 0 0 0 0 0.25 0"/>
<feBlend mode="normal" in2="shape" result="effect1_innerShadow_13_115"/>
</filter>
<filter id="filter1_i_13_115" x="39.7616" y="65.8421" width="80.7759" height="116.003" filterUnits="userSpaceOnUse" color-interpolation-filters="sRGB">
<feFlood flood-opacity="0" result="BackgroundImageFix"/>
<feBlend mode="normal" in="SourceGraphic" in2="BackgroundImageFix" result="shape"/>
<feColorMatrix in="SourceAlpha" type="matrix" values="0 0 0 0 0 0 0 0 0 0 0 0 0 0 0 0 0 0 127 0" result="hardAlpha"/>
<feOffset dy="4"/>
<feGaussianBlur stdDeviation="2"/>
<feComposite in2="hardAlpha" operator="arithmetic" k2="-1" k3="1"/>
<feColorMatrix type="matrix" values="0 0 0 0 0 0 0 0 0 0 0 0 0 0 0 0 0 0 0.25 0"/>
<feBlend mode="normal" in2="shape" result="effect1_innerShadow_13_115"/>
</filter>
<linearGradient id="paint0_linear_13_115" x1="48.2296" y1="4.10517" x2="34.7395" y2="118.264" gradientUnits="userSpaceOnUse">
<stop stop-color="#DF8B43"/>
<stop offset="1" stop-color="#2819FF"/>
</linearGradient>
<linearGradient id="paint1_linear_13_115" x1="86.9046" y1="66.5283" x2="73.4144" y2="180.687" gradientUnits="userSpaceOnUse">
<stop stop-color="#D87F2D"/>
<stop offset="1" stop-color="#BE3BC7" stop-opacity="0.36"/>
</linearGradient>
</defs>
</svg>
