<svg width="553" height="200" viewBox="0 0 553 200" fill="none" xmlns="http://www.w3.org/2000/svg">
<g filter="url(#filter0_i_42_2)">
<path fill-rule="evenodd" clip-rule="evenodd" d="M72.3811 17.6147L11.0215 113.939L44.638 118.223L41.1213 127.854L9.93228 123.88C2.59688 122.945 -1.35724 114.631 2.58797 108.438L63.9476 12.1133C69.8547 2.84005 84.3078 8.87224 82.1723 19.7195L67.4469 94.5185L57.1641 94.9105L72.3811 17.6147Z" fill="url(#paint0_linear_42_2)"/>
</g>
<g filter="url(#filter1_i_42_2)">
<path fill-rule="evenodd" clip-rule="evenodd" d="M50.0718 181.397L111.431 85.0722L77.8148 80.788L81.3315 71.1569L112.521 75.1317C119.856 76.0665 123.81 84.3803 119.865 90.5736L58.5053 186.898C52.5982 196.171 38.1451 190.139 40.2806 179.292L55.006 104.493L65.2887 104.101L50.0718 181.397Z" fill="url(#paint1_linear_42_2)"/>
</g>
<path d="M171.504 122V67.4545H206.98V75.7376H181.386V90.5458H205.143V98.8288H181.386V113.717H207.193V122H171.504ZM228.407 122.826C225.815 122.826 223.48 122.364 221.402 121.441C219.343 120.5 217.709 119.115 216.502 117.286C215.312 115.457 214.717 113.202 214.717 110.521C214.717 108.213 215.144 106.304 215.996 104.795C216.848 103.286 218.011 102.078 219.485 101.173C220.958 100.267 222.619 99.5835 224.465 99.1218C226.33 98.6424 228.256 98.2962 230.245 98.0831C232.642 97.8345 234.586 97.6126 236.077 97.4173C237.569 97.2042 238.652 96.8846 239.327 96.4585C240.019 96.0146 240.365 95.331 240.365 94.4077V94.2479C240.365 92.2415 239.771 90.6879 238.581 89.587C237.391 88.4862 235.678 87.9357 233.441 87.9357C231.079 87.9357 229.206 88.4506 227.821 89.4805C226.454 90.5103 225.531 91.7266 225.051 93.1293L216.049 91.8509C216.759 89.3651 217.931 87.2876 219.565 85.6186C221.198 83.9318 223.196 82.6712 225.557 81.8366C227.919 80.9844 230.529 80.5582 233.387 80.5582C235.358 80.5582 237.32 80.7891 239.273 81.2507C241.227 81.7124 243.011 82.4759 244.627 83.5412C246.243 84.5888 247.539 86.0181 248.515 87.8292C249.51 89.6403 250.007 91.9041 250.007 94.6207V122H240.738V116.38H240.419C239.833 117.517 239.007 118.582 237.942 119.576C236.894 120.553 235.571 121.343 233.973 121.947C232.393 122.533 230.538 122.826 228.407 122.826ZM230.911 115.741C232.846 115.741 234.524 115.359 235.944 114.596C237.365 113.815 238.457 112.785 239.22 111.506C240.001 110.228 240.392 108.834 240.392 107.325V102.504C240.09 102.753 239.575 102.984 238.847 103.197C238.137 103.41 237.338 103.596 236.45 103.756C235.563 103.916 234.684 104.058 233.814 104.182C232.944 104.306 232.189 104.413 231.55 104.502C230.112 104.697 228.824 105.017 227.688 105.461C226.552 105.904 225.655 106.526 224.998 107.325C224.341 108.106 224.012 109.118 224.012 110.361C224.012 112.137 224.661 113.477 225.957 114.383C227.253 115.288 228.904 115.741 230.911 115.741ZM292.034 91.9041L283.245 92.8629C282.997 91.9751 282.562 91.1406 281.94 90.3594C281.337 89.5781 280.52 88.9478 279.49 88.4684C278.46 87.989 277.2 87.7493 275.708 87.7493C273.702 87.7493 272.015 88.1843 270.648 89.0543C269.298 89.9244 268.633 91.0518 268.65 92.4368C268.633 93.6264 269.068 94.5941 269.955 95.3398C270.861 96.0856 272.352 96.6982 274.43 97.1776L281.408 98.669C285.278 99.5036 288.155 100.826 290.037 102.637C291.937 104.449 292.896 106.819 292.913 109.749C292.896 112.323 292.141 114.596 290.65 116.567C289.176 118.52 287.125 120.047 284.497 121.148C281.869 122.249 278.851 122.799 275.442 122.799C270.435 122.799 266.404 121.751 263.35 119.656C260.296 117.543 258.476 114.605 257.89 110.841L267.292 109.935C267.718 111.782 268.624 113.175 270.009 114.116C271.394 115.058 273.196 115.528 275.415 115.528C277.706 115.528 279.543 115.058 280.928 114.116C282.331 113.175 283.032 112.012 283.032 110.627C283.032 109.456 282.58 108.488 281.674 107.724C280.786 106.961 279.401 106.375 277.519 105.967L270.541 104.502C266.617 103.685 263.714 102.309 261.832 100.374C259.95 98.4205 259.018 95.9524 259.036 92.9695C259.018 90.4482 259.701 88.2642 261.086 86.4176C262.489 84.5533 264.433 83.1151 266.919 82.103C269.423 81.0732 272.308 80.5582 275.575 80.5582C280.369 80.5582 284.142 81.5792 286.894 83.6211C289.664 85.663 291.378 88.424 292.034 91.9041ZM306.856 137.341C305.542 137.341 304.326 137.234 303.207 137.021C302.106 136.826 301.227 136.595 300.571 136.329L302.808 128.818C304.21 129.227 305.462 129.422 306.563 129.404C307.664 129.386 308.632 129.04 309.466 128.365C310.318 127.708 311.038 126.608 311.623 125.063L312.449 122.852L297.614 81.0909H307.841L317.27 111.986H317.696L327.151 81.0909H337.405L321.025 126.954C320.262 129.12 319.25 130.975 317.989 132.52C316.728 134.083 315.183 135.272 313.355 136.089C311.544 136.924 309.377 137.341 306.856 137.341ZM399.647 84.8729C399.203 83.4347 398.591 82.1474 397.81 81.011C397.046 79.8569 396.123 78.8714 395.04 78.0547C393.974 77.2379 392.749 76.6254 391.364 76.217C389.979 75.7908 388.47 75.5778 386.837 75.5778C383.907 75.5778 381.297 76.3146 379.006 77.7884C376.716 79.2621 374.914 81.4283 373.6 84.2869C372.303 87.1278 371.655 90.5902 371.655 94.674C371.655 98.7933 372.303 102.282 373.6 105.141C374.896 108 376.698 110.175 379.006 111.666C381.314 113.14 383.996 113.877 387.05 113.877C389.819 113.877 392.216 113.344 394.241 112.279C396.283 111.213 397.854 109.704 398.955 107.751C400.056 105.78 400.606 103.472 400.606 100.826L402.843 101.173H388.035V93.4489H410.167V100.001C410.167 104.67 409.173 108.71 407.185 112.119C405.196 115.528 402.462 118.156 398.981 120.002C395.501 121.831 391.506 122.746 386.996 122.746C381.971 122.746 377.559 121.618 373.759 119.363C369.977 117.091 367.021 113.868 364.89 109.695C362.778 105.505 361.721 100.533 361.721 94.7805C361.721 90.3771 362.343 86.4442 363.585 82.9819C364.846 79.5195 366.604 76.581 368.859 74.1662C371.114 71.7337 373.759 69.8871 376.796 68.6264C379.832 67.348 383.134 66.7088 386.703 66.7088C389.722 66.7088 392.536 67.1527 395.146 68.0405C397.756 68.9105 400.073 70.1534 402.098 71.7692C404.139 73.3849 405.817 75.3026 407.131 77.522C408.445 79.7415 409.306 82.1918 409.715 84.8729H399.647ZM419.296 122V81.0909H428.644V87.9091H429.071C429.816 85.5476 431.095 83.7276 432.906 82.4492C434.735 81.1531 436.821 80.505 439.165 80.505C439.697 80.505 440.292 80.5316 440.949 80.5849C441.624 80.6204 442.183 80.6825 442.627 80.7713V89.6403C442.219 89.4982 441.571 89.3739 440.683 89.2674C439.813 89.1431 438.969 89.081 438.153 89.081C436.395 89.081 434.815 89.4627 433.412 90.2262C432.027 90.9719 430.935 92.0107 430.136 93.3423C429.337 94.674 428.937 96.2099 428.937 97.9499V122H419.296ZM449.032 122V81.0909H458.674V122H449.032ZM453.88 75.2848C452.353 75.2848 451.039 74.7788 449.938 73.7667C448.837 72.7369 448.287 71.5028 448.287 70.0646C448.287 68.6087 448.837 67.3746 449.938 66.3626C451.039 65.3327 452.353 64.8178 453.88 64.8178C455.424 64.8178 456.738 65.3327 457.822 66.3626C458.922 67.3746 459.473 68.6087 459.473 70.0646C459.473 71.5028 458.922 72.7369 457.822 73.7667C456.738 74.7788 455.424 75.2848 453.88 75.2848ZM483.769 122.719C480.555 122.719 477.679 121.893 475.14 120.242C472.601 118.591 470.595 116.194 469.121 113.051C467.647 109.908 466.91 106.091 466.91 101.599C466.91 97.0533 467.656 93.218 469.147 90.093C470.657 86.9503 472.69 84.5799 475.246 82.9819C477.803 81.3661 480.653 80.5582 483.796 80.5582C486.193 80.5582 488.164 80.9666 489.708 81.7834C491.253 82.5824 492.478 83.5501 493.384 84.6864C494.289 85.805 494.991 86.8615 495.488 87.8558H495.887V67.4545H505.555V122H496.074V115.555H495.488C494.991 116.549 494.272 117.605 493.331 118.724C492.39 119.825 491.147 120.766 489.602 121.547C488.057 122.328 486.113 122.719 483.769 122.719ZM486.459 114.809C488.501 114.809 490.241 114.259 491.679 113.158C493.118 112.039 494.21 110.485 494.955 108.497C495.701 106.508 496.074 104.191 496.074 101.545C496.074 98.8999 495.701 96.6005 494.955 94.6474C494.227 92.6942 493.144 91.1761 491.706 90.093C490.286 89.0099 488.537 88.4684 486.459 88.4684C484.311 88.4684 482.517 89.0277 481.079 90.1463C479.641 91.2649 478.558 92.8097 477.83 94.7805C477.102 96.7514 476.738 99.0064 476.738 101.545C476.738 104.102 477.102 106.384 477.83 108.39C478.576 110.379 479.668 111.95 481.106 113.104C482.562 114.241 484.346 114.809 486.459 114.809Z" fill="white"/>
<g filter="url(#filter2_d_42_2)">
<path d="M532.5 70C532.5 74.6944 528.694 78.5 524 78.5C519.306 78.5 515.5 74.6944 515.5 70C515.5 65.3056 519.306 61.5 524 61.5C528.694 61.5 532.5 65.3056 532.5 70Z" stroke="white" shape-rendering="crispEdges"/>
</g>
<path d="M521.458 74V65.2727H524.731C525.402 65.2727 525.964 65.3892 526.419 65.6222C526.876 65.8551 527.221 66.1818 527.454 66.6023C527.69 67.0199 527.808 67.5071 527.808 68.0639C527.808 68.6236 527.689 69.1094 527.45 69.5213C527.214 69.9304 526.866 70.2472 526.406 70.4716C525.946 70.6932 525.38 70.804 524.71 70.804H522.379V69.4915H524.497C524.889 69.4915 525.21 69.4375 525.46 69.3295C525.71 69.2187 525.895 69.0582 526.014 68.848C526.136 68.6349 526.197 68.3736 526.197 68.0639C526.197 67.7543 526.136 67.4901 526.014 67.2713C525.892 67.0497 525.706 66.8821 525.456 66.7685C525.206 66.652 524.883 66.5938 524.488 66.5938H523.039V74H521.458ZM525.967 70.0455L528.127 74H526.363L524.241 70.0455H525.967Z" fill="white"/>
<defs>
<filter id="filter0_i_42_2" x="1.03101" y="7.5498" width="81.3547" height="124.305" filterUnits="userSpaceOnUse" color-interpolation-filters="sRGB">
<feFlood flood-opacity="0" result="BackgroundImageFix"/>
<feBlend mode="normal" in="SourceGraphic" in2="BackgroundImageFix" result="shape"/>
<feColorMatrix in="SourceAlpha" type="matrix" values="0 0 0 0 0 0 0 0 0 0 0 0 0 0 0 0 0 0 127 0" result="hardAlpha"/>
<feOffset dy="4"/>
<feGaussianBlur stdDeviation="2"/>
<feComposite in2="hardAlpha" operator="arithmetic" k2="-1" k3="1"/>
<feColorMatrix type="matrix" values="0 0 0 0 0 0 0 0 0 0 0 0 0 0 0 0 0 0 0.25 0"/>
<feBlend mode="normal" in2="shape" result="effect1_innerShadow_42_2"/>
</filter>
<filter id="filter1_i_42_2" x="40.0671" y="71.1569" width="81.3547" height="124.305" filterUnits="userSpaceOnUse" color-interpolation-filters="sRGB">
<feFlood flood-opacity="0" result="BackgroundImageFix"/>
<feBlend mode="normal" in="SourceGraphic" in2="BackgroundImageFix" result="shape"/>
<feColorMatrix in="SourceAlpha" type="matrix" values="0 0 0 0 0 0 0 0 0 0 0 0 0 0 0 0 0 0 127 0" result="hardAlpha"/>
<feOffset dy="4"/>
<feGaussianBlur stdDeviation="2"/>
<feComposite in2="hardAlpha" operator="arithmetic" k2="-1" k3="1"/>
<feColorMatrix type="matrix" values="0 0 0 0 0 0 0 0 0 0 0 0 0 0 0 0 0 0 0.25 0"/>
<feBlend mode="normal" in2="shape" result="effect1_innerShadow_42_2"/>
</filter>
<filter id="filter2_d_42_2" x="511" y="61" width="26" height="26" filterUnits="userSpaceOnUse" color-interpolation-filters="sRGB">
<feFlood flood-opacity="0" result="BackgroundImageFix"/>
<feColorMatrix in="SourceAlpha" type="matrix" values="0 0 0 0 0 0 0 0 0 0 0 0 0 0 0 0 0 0 127 0" result="hardAlpha"/>
<feOffset dy="4"/>
<feGaussianBlur stdDeviation="2"/>
<feComposite in2="hardAlpha" operator="out"/>
<feColorMatrix type="matrix" values="0 0 0 0 0 0 0 0 0 0 0 0 0 0 0 0 0 0 0.25 0"/>
<feBlend mode="normal" in2="BackgroundImageFix" result="effect1_dropShadow_42_2"/>
<feBlend mode="normal" in="SourceGraphic" in2="effect1_dropShadow_42_2" result="shape"/>
</filter>
<linearGradient id="paint0_linear_42_2" x1="48.417" y1="4.45809" x2="32.826" y2="126.797" gradientUnits="userSpaceOnUse">
<stop stop-color="#DF8B43"/>
<stop offset="1" stop-color="#2819FF"/>
</linearGradient>
<linearGradient id="paint1_linear_42_2" x1="87.4712" y1="71.9393" x2="71.8802" y2="194.278" gradientUnits="userSpaceOnUse">
<stop stop-color="#D87F2D"/>
<stop offset="1" stop-color="#BE3BC7" stop-opacity="0.36"/>
</linearGradient>
</defs>
</svg>
