<svg width="548" height="200" viewBox="0 0 548 200" fill="none" xmlns="http://www.w3.org/2000/svg">
<path d="M191.544 113V65H222.763V72.2891H200.239V85.3203H221.146V92.6094H200.239V105.711H222.95V113H191.544ZM241.618 113.727C239.337 113.727 237.282 113.32 235.454 112.508C233.642 111.68 232.204 110.461 231.142 108.852C230.095 107.242 229.571 105.258 229.571 102.898C229.571 100.867 229.946 99.1875 230.696 97.8594C231.446 96.5312 232.47 95.4688 233.767 94.6719C235.063 93.875 236.524 93.2734 238.149 92.8672C239.79 92.4453 241.485 92.1406 243.235 91.9531C245.345 91.7344 247.056 91.5391 248.368 91.3672C249.681 91.1797 250.634 90.8984 251.228 90.5234C251.837 90.1328 252.142 89.5312 252.142 88.7187V88.5781C252.142 86.8125 251.618 85.4453 250.571 84.4766C249.524 83.5078 248.017 83.0234 246.048 83.0234C243.97 83.0234 242.321 83.4766 241.103 84.3828C239.899 85.2891 239.087 86.3594 238.665 87.5937L230.743 86.4687C231.368 84.2812 232.399 82.4531 233.837 80.9844C235.274 79.5 237.032 78.3906 239.11 77.6562C241.188 76.9062 243.485 76.5313 246.001 76.5313C247.735 76.5313 249.462 76.7344 251.181 77.1406C252.899 77.5469 254.47 78.2187 255.892 79.1562C257.313 80.0781 258.454 81.3359 259.313 82.9297C260.188 84.5234 260.626 86.5156 260.626 88.9062V113H252.47V108.055H252.188C251.673 109.055 250.946 109.992 250.009 110.867C249.087 111.727 247.923 112.422 246.517 112.953C245.126 113.469 243.493 113.727 241.618 113.727ZM243.821 107.492C245.524 107.492 247.001 107.156 248.251 106.484C249.501 105.797 250.462 104.891 251.134 103.766C251.821 102.641 252.165 101.414 252.165 100.086V95.8437C251.899 96.0625 251.446 96.2656 250.806 96.4531C250.181 96.6406 249.478 96.8047 248.696 96.9453C247.915 97.0859 247.142 97.2109 246.376 97.3203C245.61 97.4297 244.946 97.5234 244.384 97.6016C243.118 97.7734 241.985 98.0547 240.985 98.4453C239.985 98.8359 239.196 99.3828 238.618 100.086C238.04 100.773 237.751 101.664 237.751 102.758C237.751 104.32 238.321 105.5 239.462 106.297C240.603 107.094 242.056 107.492 243.821 107.492ZM297.61 86.5156L289.876 87.3594C289.657 86.5781 289.274 85.8438 288.728 85.1562C288.196 84.4688 287.478 83.9141 286.571 83.4922C285.665 83.0703 284.556 82.8594 283.243 82.8594C281.478 82.8594 279.993 83.2422 278.79 84.0078C277.603 84.7734 277.017 85.7656 277.032 86.9844C277.017 88.0312 277.399 88.8828 278.181 89.5391C278.978 90.1953 280.29 90.7344 282.118 91.1563L288.259 92.4687C291.665 93.2031 294.196 94.3672 295.853 95.9609C297.524 97.5547 298.368 99.6406 298.384 102.219C298.368 104.484 297.704 106.484 296.392 108.219C295.095 109.937 293.29 111.281 290.978 112.25C288.665 113.219 286.009 113.703 283.009 113.703C278.603 113.703 275.056 112.781 272.368 110.938C269.681 109.078 268.079 106.492 267.563 103.18L275.837 102.383C276.212 104.008 277.009 105.234 278.228 106.062C279.446 106.891 281.032 107.305 282.985 107.305C285.001 107.305 286.618 106.891 287.837 106.062C289.071 105.234 289.688 104.211 289.688 102.992C289.688 101.961 289.29 101.109 288.493 100.437C287.712 99.7656 286.493 99.25 284.837 98.8906L278.696 97.6016C275.243 96.8828 272.688 95.6719 271.032 93.9687C269.376 92.25 268.556 90.0781 268.571 87.4531C268.556 85.2344 269.157 83.3125 270.376 81.6875C271.61 80.0469 273.321 78.7812 275.509 77.8906C277.712 76.9844 280.251 76.5313 283.126 76.5313C287.345 76.5313 290.665 77.4297 293.087 79.2266C295.524 81.0234 297.032 83.4531 297.61 86.5156ZM310.653 126.5C309.497 126.5 308.427 126.406 307.442 126.219C306.474 126.047 305.7 125.844 305.122 125.609L307.091 119C308.325 119.359 309.427 119.531 310.396 119.516C311.364 119.5 312.216 119.195 312.95 118.602C313.7 118.023 314.333 117.055 314.849 115.695L315.575 113.75L302.521 77H311.521L319.817 104.187H320.192L328.513 77H337.536L323.122 117.359C322.45 119.266 321.56 120.898 320.45 122.258C319.341 123.633 317.981 124.68 316.372 125.398C314.778 126.133 312.872 126.5 310.653 126.5ZM392.31 80.3281C391.919 79.0625 391.38 77.9297 390.692 76.9297C390.021 75.9141 389.208 75.0469 388.255 74.3281C387.317 73.6094 386.239 73.0703 385.021 72.7109C383.802 72.3359 382.474 72.1484 381.036 72.1484C378.458 72.1484 376.161 72.7969 374.146 74.0938C372.13 75.3906 370.544 77.2969 369.388 79.8125C368.247 82.3125 367.677 85.3594 367.677 88.9531C367.677 92.5781 368.247 95.6484 369.388 98.1641C370.528 100.68 372.114 102.594 374.146 103.906C376.177 105.203 378.536 105.852 381.224 105.852C383.661 105.852 385.771 105.383 387.552 104.445C389.349 103.508 390.731 102.18 391.7 100.461C392.669 98.7266 393.153 96.6953 393.153 94.3672L395.122 94.6719H382.091V87.875H401.567V93.6406C401.567 97.75 400.692 101.305 398.942 104.305C397.192 107.305 394.786 109.617 391.724 111.242C388.661 112.852 385.146 113.656 381.177 113.656C376.755 113.656 372.872 112.664 369.528 110.68C366.2 108.68 363.599 105.844 361.724 102.172C359.864 98.4844 358.935 94.1094 358.935 89.0469C358.935 85.1719 359.481 81.7109 360.575 78.6641C361.685 75.6172 363.231 73.0312 365.216 70.9062C367.2 68.7656 369.528 67.1406 372.2 66.0312C374.872 64.9062 377.778 64.3437 380.919 64.3437C383.575 64.3437 386.052 64.7344 388.349 65.5156C390.646 66.2812 392.685 67.375 394.466 68.7969C396.263 70.2187 397.739 71.9062 398.896 73.8594C400.052 75.8125 400.81 77.9687 401.169 80.3281H392.31ZM409.601 113V77H417.827V83H418.202C418.858 80.9219 419.983 79.3203 421.577 78.1953C423.187 77.0547 425.022 76.4844 427.085 76.4844C427.554 76.4844 428.077 76.5078 428.655 76.5547C429.249 76.5859 429.741 76.6406 430.132 76.7187V84.5234C429.772 84.3984 429.202 84.2891 428.421 84.1953C427.655 84.0859 426.913 84.0312 426.194 84.0312C424.647 84.0312 423.257 84.3672 422.022 85.0391C420.804 85.6953 419.843 86.6094 419.14 87.7812C418.437 88.9531 418.085 90.3047 418.085 91.8359V113H409.601ZM435.769 113V77H444.253V113H435.769ZM440.034 71.8906C438.69 71.8906 437.534 71.4453 436.565 70.5547C435.597 69.6484 435.112 68.5625 435.112 67.2969C435.112 66.0156 435.597 64.9297 436.565 64.0391C437.534 63.1328 438.69 62.6797 440.034 62.6797C441.394 62.6797 442.55 63.1328 443.503 64.0391C444.472 64.9297 444.956 66.0156 444.956 67.2969C444.956 68.5625 444.472 69.6484 443.503 70.5547C442.55 71.4453 441.394 71.8906 440.034 71.8906ZM466.337 113.633C463.509 113.633 460.978 112.906 458.743 111.453C456.509 110 454.743 107.891 453.446 105.125C452.149 102.359 451.501 99 451.501 95.0469C451.501 91.0469 452.157 87.6719 453.47 84.9219C454.798 82.1562 456.587 80.0703 458.837 78.6641C461.087 77.2422 463.595 76.5313 466.36 76.5313C468.47 76.5313 470.204 76.8906 471.563 77.6094C472.923 78.3125 474.001 79.1641 474.798 80.1641C475.595 81.1484 476.212 82.0781 476.649 82.9531H477.001V65H485.509V113H477.165V107.328H476.649C476.212 108.203 475.579 109.133 474.751 110.117C473.923 111.086 472.829 111.914 471.47 112.602C470.11 113.289 468.399 113.633 466.337 113.633ZM468.704 106.672C470.501 106.672 472.032 106.187 473.298 105.219C474.563 104.234 475.524 102.867 476.181 101.117C476.837 99.3672 477.165 97.3281 477.165 95C477.165 92.6719 476.837 90.6484 476.181 88.9297C475.54 87.2109 474.587 85.875 473.321 84.9219C472.071 83.9687 470.532 83.4922 468.704 83.4922C466.813 83.4922 465.235 83.9844 463.97 84.9687C462.704 85.9531 461.751 87.3125 461.11 89.0469C460.47 90.7812 460.149 92.7656 460.149 95C460.149 97.25 460.47 99.2578 461.11 101.023C461.767 102.773 462.728 104.156 463.993 105.172C465.274 106.172 466.845 106.672 468.704 106.672Z" fill="black"/>
<g filter="url(#filter0_d_18_28)">
<path d="M508.5 71C508.5 75.6944 504.694 79.5 500 79.5C495.306 79.5 491.5 75.6944 491.5 71C491.5 66.3056 495.306 62.5 500 62.5C504.694 62.5 508.5 66.3056 508.5 71Z" stroke="black" shape-rendering="crispEdges"/>
</g>
<path d="M497.458 75V66.2727H500.731C501.402 66.2727 501.964 66.3892 502.419 66.6222C502.876 66.8551 503.221 67.1818 503.454 67.6023C503.69 68.0199 503.808 68.5071 503.808 69.0639C503.808 69.6236 503.689 70.1094 503.45 70.5213C503.214 70.9304 502.866 71.2472 502.406 71.4716C501.946 71.6932 501.38 71.804 500.71 71.804H498.379V70.4915H500.497C500.889 70.4915 501.21 70.4375 501.46 70.3295C501.71 70.2187 501.895 70.0582 502.014 69.848C502.136 69.6349 502.197 69.3736 502.197 69.0639C502.197 68.7543 502.136 68.4901 502.014 68.2713C501.892 68.0497 501.706 67.8821 501.456 67.7685C501.206 67.652 500.883 67.5938 500.488 67.5938H499.039V75H497.458ZM501.967 71.0455L504.127 75H502.363L500.241 71.0455H501.967Z" fill="black"/>
<g filter="url(#filter1_i_18_28)">
<path fill-rule="evenodd" clip-rule="evenodd" d="M72.3811 17.6147L11.0215 113.939L44.638 118.223L41.1213 127.854L9.93228 123.88C2.59688 122.945 -1.35724 114.631 2.58797 108.438L63.9476 12.1133C69.8547 2.84005 84.3078 8.87224 82.1723 19.7195L67.4469 94.5185L57.1641 94.9105L72.3811 17.6147Z" fill="url(#paint0_linear_18_28)"/>
</g>
<g filter="url(#filter2_i_18_28)">
<path fill-rule="evenodd" clip-rule="evenodd" d="M50.0718 181.397L111.431 85.0722L77.8148 80.788L81.3315 71.1569L112.521 75.1317C119.856 76.0665 123.81 84.3803 119.865 90.5736L58.5053 186.898C52.5982 196.171 38.1451 190.139 40.2806 179.292L55.006 104.493L65.2887 104.101L50.0718 181.397Z" fill="url(#paint1_linear_18_28)"/>
</g>
<defs>
<filter id="filter0_d_18_28" x="487" y="62" width="26" height="26" filterUnits="userSpaceOnUse" color-interpolation-filters="sRGB">
<feFlood flood-opacity="0" result="BackgroundImageFix"/>
<feColorMatrix in="SourceAlpha" type="matrix" values="0 0 0 0 0 0 0 0 0 0 0 0 0 0 0 0 0 0 127 0" result="hardAlpha"/>
<feOffset dy="4"/>
<feGaussianBlur stdDeviation="2"/>
<feComposite in2="hardAlpha" operator="out"/>
<feColorMatrix type="matrix" values="0 0 0 0 0 0 0 0 0 0 0 0 0 0 0 0 0 0 0.25 0"/>
<feBlend mode="normal" in2="BackgroundImageFix" result="effect1_dropShadow_18_28"/>
<feBlend mode="normal" in="SourceGraphic" in2="effect1_dropShadow_18_28" result="shape"/>
</filter>
<filter id="filter1_i_18_28" x="1.03101" y="7.5498" width="81.3547" height="124.305" filterUnits="userSpaceOnUse" color-interpolation-filters="sRGB">
<feFlood flood-opacity="0" result="BackgroundImageFix"/>
<feBlend mode="normal" in="SourceGraphic" in2="BackgroundImageFix" result="shape"/>
<feColorMatrix in="SourceAlpha" type="matrix" values="0 0 0 0 0 0 0 0 0 0 0 0 0 0 0 0 0 0 127 0" result="hardAlpha"/>
<feOffset dy="4"/>
<feGaussianBlur stdDeviation="2"/>
<feComposite in2="hardAlpha" operator="arithmetic" k2="-1" k3="1"/>
<feColorMatrix type="matrix" values="0 0 0 0 0 0 0 0 0 0 0 0 0 0 0 0 0 0 0.25 0"/>
<feBlend mode="normal" in2="shape" result="effect1_innerShadow_18_28"/>
</filter>
<filter id="filter2_i_18_28" x="40.0671" y="71.1569" width="81.3547" height="124.305" filterUnits="userSpaceOnUse" color-interpolation-filters="sRGB">
<feFlood flood-opacity="0" result="BackgroundImageFix"/>
<feBlend mode="normal" in="SourceGraphic" in2="BackgroundImageFix" result="shape"/>
<feColorMatrix in="SourceAlpha" type="matrix" values="0 0 0 0 0 0 0 0 0 0 0 0 0 0 0 0 0 0 127 0" result="hardAlpha"/>
<feOffset dy="4"/>
<feGaussianBlur stdDeviation="2"/>
<feComposite in2="hardAlpha" operator="arithmetic" k2="-1" k3="1"/>
<feColorMatrix type="matrix" values="0 0 0 0 0 0 0 0 0 0 0 0 0 0 0 0 0 0 0.25 0"/>
<feBlend mode="normal" in2="shape" result="effect1_innerShadow_18_28"/>
</filter>
<linearGradient id="paint0_linear_18_28" x1="48.417" y1="4.45809" x2="32.826" y2="126.797" gradientUnits="userSpaceOnUse">
<stop stop-color="#DF8B43"/>
<stop offset="1" stop-color="#2819FF"/>
</linearGradient>
<linearGradient id="paint1_linear_18_28" x1="87.4712" y1="71.9393" x2="71.8802" y2="194.278" gradientUnits="userSpaceOnUse">
<stop stop-color="#D87F2D"/>
<stop offset="1" stop-color="#BE3BC7" stop-opacity="0.36"/>
</linearGradient>
</defs>
</svg>
